<svg id="Layer_1" data-name="Layer 1" xmlns="http://www.w3.org/2000/svg" viewBox="0 0 500 500"><defs><style>.cls-1{fill:#4540b7;}</style></defs><path class="cls-1" d="M394.06,295.32c-1.1-.29-2.16-.75-3.35-1.17,1.53-5.36,3-10.43,4.44-15.61,9.71,0,19.15.1,28.59,0,10.14-.13,17.16-6.64,18.12-16.17H442c1-13.32.06-34.72,0-35.62h-.07a17.2,17.2,0,0,0-17.23-16.26c-8.78-.24-17.57-.17-26.35,0-2.64.05-3.7-.85-4.29-3.38a78.85,78.85,0,0,0-3.7-12.62c-4.66-11.13-9.66-22.12-14.79-33.77,5.93-5.91,12.57-12.44,19.1-19.07,8.31-8.42,8.29-18.35,0-26.81q-10.51-10.68-21.17-21.21c-8.62-8.54-18.38-8.54-27,0-5.88,5.8-11.76,11.6-17.48,17.56-1.72,1.79-3,1.86-5,.59A146,146,0,0,0,281.39,94c-2.92-.7-3.44-2.08-3.4-4.71.13-8,.12-16,0-24C277.89,53,270.91,46,258.62,46q-14.56-.09-29.14,0C217,46,210,53.07,209.9,65.6c-.05,7.47-.21,14.94.07,22.4.15,3.78-.93,5.38-4.76,6.57-9.61,3-19.08,6.52-28.39,10.34-5.37,2.2-10.33,5.37-15.79,8.27-6.74-6.78-13.38-13.67-20.26-20.33-7.77-7.52-17.59-7.6-25.28-.17-7.85,7.59-15.49,15.4-23.17,23.17-4.21,4.27-6.24,9.62-4.68,15.35a27,27,0,0,0,5.94,10.51c6.22,6.87,13,13.22,19.62,19.84a153.29,153.29,0,0,0-19.58,46.51c-.55,2.32-2,2.36-3.84,2.35-8.38,0-16.78-.34-25.14.13-3.82.21-8.24,1.06-11.13,3.27-3.24,2.5-5.07,6.85-7.51,10.39V265c4,10.65,12,14.28,22.93,13.64,7.95-.47,15.94-.1,24.1-.1a159,159,0,0,0,20.38,49.11c-1.29,1.06-2.49,1.91-3.52,2.93-5.77,5.72-11.6,11.39-17.22,17.26-7,7.33-7.64,17.07-1.08,24.11q12.12,13,25.12,25.15c7,6.5,16.65,6,23.76-.83,5.59-5.33,11-10.85,16.36-16.41a35.05,35.05,0,0,0,3.49-5A155.06,155.06,0,0,0,207.4,395c2.23.54,2.53,1.76,2.52,3.7-.07,8.53-.17,17.07,0,25.59.23,11.41,7.3,18.33,18.63,18.42,9.72.07,19.45-.39,29.14.11,12,.62,20.89-7.09,20.39-20.43-.29-7.85-.12-15.73,0-23.59,0-1.17.79-3.06,1.65-3.35,4.88-1.64,9.89-2.91,15.06-4.36.34,1,.69,1.87.92,2.76,5.38,20.66,17.1,36.73,35,48.28a75.44,75.44,0,0,0,19,8.83l-.23.86a112.49,112.49,0,0,0,25.64,2.86,96.82,96.82,0,0,0,24-2.86l-.27-1.06c30.95-10,53.84-39.05,55.76-72A81,81,0,0,0,394.06,295.32ZM293.19,377c-.1.9-1.46,2.08-2.47,2.4q-8,2.55-16.05,4.69c-6.68,1.77-8.57,4-8.6,10.91,0,9.19,0,18.39,0,27.59,0,6.57-1.51,8.07-7.93,8.09q-14.18,0-28.34,0c-6.32,0-7.89-1.63-7.91-8.13,0-9.2,0-18.4,0-27.6,0-6.79-1.79-9.28-8.23-10.76a150.12,150.12,0,0,1-46.89-19.48c-5.56-3.51-8.69-2.95-13.42,1.77-6.7,6.67-13.35,13.4-20.06,20.06-4,4-6.44,3.95-10.46-.06q-10.33-10.29-20.6-20.65c-4.1-4.13-4.06-6.53.15-10.77,6.66-6.71,13.38-13.37,20-20.1,4.35-4.4,5-7.71,1.7-12.85a153.24,153.24,0,0,1-19.76-47.71c-1.38-6-4-7.86-10.22-7.88-9.71,0-19.42,0-29.14,0-5.06,0-6.95-2-7-7.07q-.06-14.8,0-29.6c0-5.75,1.64-7.42,7.31-7.44,9.58,0,19.17,0,28.75,0,6.13,0,8.9-2.05,10.26-7.91A152.53,152.53,0,0,1,124,166.75c3.27-5.17,2.69-8.52-1.61-12.86-6.84-6.92-13.76-13.75-20.58-20.67-3.57-3.62-3.58-6.32,0-9.94q10.51-10.66,21.16-21.22c3.86-3.83,6.24-3.78,10.17.12,6.8,6.76,13.53,13.59,20.34,20.35,4.4,4.36,7.7,5,12.81,1.76a153.3,153.3,0,0,1,47.62-19.79c6.1-1.39,7.88-4,7.91-10.18.05-9.6,0-19.2,0-28.8,0-5.65,1.85-7.49,7.41-7.52q14.57-.09,29.14,0c5.87,0,7.58,1.75,7.61,7.7,0,9.33,0,18.66,0,28,0,6.92,1.8,9.47,8.49,11A148.42,148.42,0,0,1,321.08,124c5.71,3.58,8.87,3,13.77-1.87,6.51-6.49,13-13,19.49-19.51,4.51-4.5,6.62-4.54,11-.15q10.19,10.16,20.32,20.36c4.18,4.22,4.19,6.64.05,10.81-6.66,6.72-13.37,13.38-20,20.09-4.5,4.54-5.08,7.78-1.7,13.17a152.67,152.67,0,0,1,19.5,47c1.54,6.67,4.13,8.5,11,8.53,9.31,0,18.63,0,27.94,0,5.86,0,7.16,1.3,7.59,7.22a9.5,9.5,0,0,0,.11.95c.2,5.68.52,17.62.12,27a12.45,12.45,0,0,0-.24,1.91c-.27,5.38-2,7.07-7.41,7.09-9.58,0-19.16,0-28.74,0-6.2,0-8.66,1.95-10.24,7.87-1,3.86-1.94,7.75-3.08,11.57-2,6.66-2.08,6.37-8.89,6.95-7.48.63-14.91,1.83-22.62,2.81a114,114,0,0,0,11.49-41.82,116.14,116.14,0,0,0-4.88-43.44,119.66,119.66,0,0,0-20.3-38.67,115.31,115.31,0,0,0-32.89-28.74c-45.18-26.29-103.53-18.57-140.52,18.52-37.38,37.47-45.32,95.43-18.9,141,15.41,26.6,38.16,44.47,67.48,53.56s58.15,6.31,85.15-6.79C294.87,358.61,294.14,367.83,293.19,377Zm43.17-139.11c-3.16-11.67-6.2-22.85-9.38-34.56l10.52-6.1a102.63,102.63,0,0,1,11.11,40.66Zm12.2,12.73a103.55,103.55,0,0,1-11,40.76L327,285.27c3.14-11.57,6.17-22.77,9.38-34.62ZM321,192.92l-25.65-25.53c1.74-3,3.83-6.66,6.1-10.59a103.28,103.28,0,0,1,30.13,30ZM291,150.73l-6.15,10.62L250.21,152V139.88A100.72,100.72,0,0,1,291,150.73Zm-53.23,1c0,.62-1.38,1.6-2.19,1.68a94.8,94.8,0,0,0-31.91,9.08c-2.37-4.12-4.48-7.77-6.67-11.59a102.72,102.72,0,0,1,40.87-11.06C237.91,143.9,238,147.83,237.81,151.74Zm-83.47,77.4c-.78,2.88-.58,7.92-2,8.38-3.68,1.2-8,.4-12.41.4a99.89,99.89,0,0,1,10.82-40.5l10.72,6.2C159,212.58,156.59,220.84,154.34,229.14Zm7,55.95-10.54,6.08a100.33,100.33,0,0,1-10.92-40.44h12.21C155.14,262.08,158.15,273.29,161.33,285.09ZM156.78,187A103.72,103.72,0,0,1,186.63,157c2.21,3.82,4.33,7.45,6.15,10.58l-25.44,25.56Zm22.48,139.52c-8.95-6.57-16.17-15-22.57-24.9l8.5-4.91c10.51-6.05,11.62-9.35,6.73-20.3a76.51,76.51,0,0,1-6.46-39.34c2.24-22.84,12.35-41.58,30.43-55.39,20.93-16,44.58-20.83,70.09-13.51a78.82,78.82,0,0,1,56.78,85.15c-1,8.43-4.14,16.73-7.13,24.78-3.38,9.09-2.48,13,5.85,17.86L332,302.12c-2.29,2.44-4.2,4.57-6.2,6.6-5.59,5.66-11.06,11.46-16.89,16.85-3.77,3.48-7.75,7-12.22,9.39C255.87,356.87,216.58,353.91,179.26,326.54Zm256.52,77.28C426,423.47,410.25,435.78,389,441a11,11,0,0,0-2.58,1,101.81,101.81,0,0,1-23.77-.1,28.64,28.64,0,0,0-3.81-.94c-34.11-7.32-57.92-41.23-53.16-75.73,5.4-39.19,40.19-65.38,79.11-59.55C430.07,312.47,456.27,362.79,435.78,403.82Z"/><path class="cls-1" d="M401,344.48c-5.67-1.21-10.55.68-14.45,4.82-6.38,6.78-12.62,13.69-19.72,21.41-3-3.33-4.48-5.38-6.33-7.06-6.28-5.76-15-5.69-20.82,0a14.58,14.58,0,0,0-.26,20.84c5.46,5.81,11.2,11.38,17.11,16.74,5.53,5,13.48,5.32,18.92.24,11.47-10.7,22.84-21.54,33.65-32.91C416.81,360.43,412,346.84,401,344.48Zm-1.19,16.6c-.28.9-1.38,1.57-2.14,2.31-9.32,9.1-18.71,18.15-27.95,27.34-2.51,2.49-4.46,2.72-7,.08-4.61-4.79-9.5-9.32-14.12-14.1a4.44,4.44,0,0,1-1-3.46c.17-.86,1.54-1.47,2.57-2.35a37.15,37.15,0,0,1,3.09,2.38c2.5,2.39,4.91,4.87,7.4,7.27,4.13,4,6.85,4,11,0,7.36-7.12,14.66-14.31,22-21.47.76-.74,1.45-1.82,2.36-2.07,1.22-.33,3.17-.49,3.77.19S400.14,359.86,399.77,361.08Z"/><path class="cls-1" d="M297.5,270.57a27.77,27.77,0,0,0-2.67-1.74c-9.61-6-19.18-12-28.87-17.81-2.66-1.59-4.6-3.15-3.23-6.67a46.87,46.87,0,0,0-1-5.39A18.6,18.6,0,1,0,227,251.86a18.34,18.34,0,0,0,25.84,8.65c2.58-1.48,4.15-1.09,6.35.31,7.85,5,15.82,9.84,23.74,14.73,2.72,1.68,5.38,3.47,8.18,5,3.1,1.68,6.45.82,8.09-1.82S300.23,272.72,297.5,270.57ZM244,250.79a6.47,6.47,0,0,1-6.61-6.53,6.56,6.56,0,1,1,13.12-.09A6.42,6.42,0,0,1,244,250.79Z"/></svg>