<svg id="Layer_1" data-name="Layer 1" xmlns="http://www.w3.org/2000/svg" viewBox="0 0 500 500"><defs><style>.cls-1{fill:#4540b7;}</style></defs><path class="cls-1" d="M390.23,283.68A61.62,61.62,0,0,0,321.4,296.3a17.27,17.27,0,0,0-2.16,3.46c-5-10-11.33-17-20.12-21.66s-18.37-4.53-28.32-4.94c22-15.13,37.5-33.76,35.81-62.07,13.5-3.33,17.65-12.73,16.82-25.32,2.1,0,3.59,0,5.07,0,5.52-.22,9.3-2.7,10.85-7.07,1.64-4.6.5-9.23-4.2-12.5a121.17,121.17,0,0,0-15.84-9c-2.17-1.06-3.23-2.18-3.63-4.49-.44-2.57-.93-5.13-1.44-7.69l.65-.12a369.53,369.53,0,0,0-13.6-50l-.85.3c-1.92-5-3.93-10-6.15-15-3.39-7.5-8.59-13.68-17-16.2H266.81c-23.46,7.27-46.93,7.09-70.39,0h-9.74c-8,2-12.91,7.64-16.62,14.52a121.36,121.36,0,0,0-5.81,12.12c-8,19.86-12.5,40.68-16.4,61.64-.5,2.67-1.67,3.84-4,5.06a147.59,147.59,0,0,0-16.6,9.88c-3.74,2.6-4.49,6.88-3.15,11.14,1.41,4.47,4.77,6.88,9.46,7.29,2.08.19,4.17.21,6.67.33-1.12,12.84,3.52,21.85,16.53,25.12,0,3.62,0,7,0,10.35a47.21,47.21,0,0,0,15.48,34.88c2.91,2.72,6.15,5.08,9.25,7.6l11.11,9a64.56,64.56,0,0,1-11.05.8c-18.5.65-33.7,13-37.81,31.05-.72,3.2-1.88,4.4-5.11,4.94-22.92,3.84-38.91,16.89-48.75,37.68a59.35,59.35,0,0,0-5.41,20.44H84l-1,41,1.13,0c0,8,0,16,0,24,0,8.67,5.65,14.41,14.25,14.41q133.27,0,266.55,0c8.7,0,14.22-5.59,14.29-14.31.06-9.23.17-18.46-.07-27.69-.08-3.37.77-4.88,4.22-5.95a61.85,61.85,0,0,0,6.84-115.67Zm-119.26,1c5.21.28,10.1.14,14.87.86a27.9,27.9,0,0,1,23.28,23.15,6.38,6.38,0,0,1-1.81,4.71c-8.28,8.29-16.64,16.5-25.17,24.52-4.51,4.25-5.52,8.87-3.1,14.49,1.91,4.45,3.6,9,5.52,13.82l-39.22,28.64c.83-2.17,1.2-3.29,1.67-4.37q16-37.39,32.1-74.77c3.39-7.89,2.7-10.65-3.79-16.14C270.86,295.81,270.23,290.79,271,284.68Zm-67-3c7,7,14.7,8.25,22.95,7.76,2.73-.16,5.49-.12,8.23,0,8.63.38,17-.12,24.34-7.77,0,3,0,4.78,0,6.57A25.57,25.57,0,0,0,267.68,308c.78.74.65,2.44.93,3.69,0,.1-.12.22-.14.34-1.63,7.27-6.35,10.5-13.53,12.17-17.71,4.1-35.05,3.72-52.35-1.85-2.75-.89-4.59-2.25-5.35-5a7.2,7.2,0,0,0-.74-1.71c-2.16-3.71-2.63-6.65,1.33-10.08,4.33-3.76,6-9.36,6.09-15.2C204,287.87,203.93,285.42,203.93,281.71Zm103-82.81V186.09h4.71C313.15,192.64,311.85,196.48,306.91,198.9ZM159.68,150.13c3.9-19.95,8.2-39.81,16.39-58.53a59.88,59.88,0,0,1,7.87-13A10.16,10.16,0,0,1,191,75.42a54.53,54.53,0,0,1,12.91,1.75c10.37,2.45,20.84,4.54,31.47,3.46,10-1,19.91-3.13,29.87-4.65,11.67-1.79,14.13-.9,19.25,9.78,2.35,4.89,4.3,10,6.19,15.11a364.83,364.83,0,0,1,12.43,46.26l.12,0c.32,1.53.64,3.07,1,4.67a333.49,333.49,0,0,0-144.53-.07A10.75,10.75,0,0,1,159.68,150.13Zm-3,42.06v6.36c-4.7-1.06-6.17-4.89-4.87-12.56h4.87Zm-19.6-18-.44-1.35c6-2.57,11.84-5.65,18-7.64,22.75-7.3,46.27-9.57,70-10,26.65-.46,53.07,1.24,78.91,8.36,8.14,2.24,16.11,5,23.81,10.61Zm44.15,75.08c-8.77-7.24-13.17-16.76-13.28-28.13-.1-11.59,0-23.18,0-35.16H295.63c-.86,14,1.48,27.84-1.79,41.48A46.08,46.08,0,0,1,278,252.7c-9.13,7.55-18.31,15.06-27.77,22.18a18.36,18.36,0,0,1-9.23,3.19,121.47,121.47,0,0,1-18.69,0,17.3,17.3,0,0,1-8.9-3.07C202.5,266.67,191.83,258,181.26,249.3Zm-26.85,58.5A28.78,28.78,0,0,1,180.72,285c3.83-.26,7.68,0,11.75,0,.93,6.87-.55,12.17-6.22,16.1-4.15,2.88-4.91,7.41-2.66,12.72,5.59,13.17,11.26,26.31,16.9,39.45,5.79,13.49,11.6,27,17.64,41a16.2,16.2,0,0,1-2.18-1.05c-11.58-8.43-23.12-16.92-34.76-25.27-1.93-1.39-2.12-2.61-1.2-4.64,1.59-3.51,2.93-7.13,4.34-10.72,2.64-6.73,2-9.74-3.11-14.73-8.3-8.09-16.56-16.23-25-24.2A5.63,5.63,0,0,1,154.41,307.8Zm71.75,128H137.34V423.57c0-11,0-22,0-32.94,0-3.54-2.36-5.76-5.56-5.75-3,0-5.23,2.15-5.58,5.43a30,30,0,0,0,0,3v42.78c-9.07,0-17.66-.11-26.25.06-3.46.07-4.6-1.23-4.54-4.61.15-9.48.06-19,0-28.45A14,14,0,0,0,95.2,401l.8-32.81h-.29a54.06,54.06,0,0,1,48.71-48,5.54,5.54,0,0,1,3.83,1.49c8.14,7.74,16.12,15.64,24.24,23.4,1.48,1.42,1.86,2.61,1,4.55-1.63,3.63-3,7.39-4.45,11.1-2.83,7.2-1.77,10.95,4.44,15.49q25.08,18.33,50.14,36.67c1,.75,2.4,1.93,2.44,2.95C226.27,422.46,226.16,429.15,226.16,435.8Zm-21-100.05c9.06.85,17.94,2.33,26.81,2.33s17.51-1.53,26.31-2.39c-8.66,20.13-17.44,40.55-26.58,61.82Zm55.72,100.13H237.45c0-6.77-.13-13.46.12-20.13,0-1.11,1.57-2.38,2.69-3.21q24.25-17.81,48.58-35.52c7.75-5.65,8.64-8.63,5.17-17.41-1.38-3.47-2.8-6.93-4.05-10.44-.32-.91-.5-2.46,0-3,4.13-4.25,8.44-8.34,13.27-13-1.48,17.88,3.09,33.09,13.62,46.28l-8.7,8.24-1.23-.76c-4.66-2.94-9.75-2.71-13.74,1.2q-16.15,15.83-32,32C256.81,424.56,256.89,428.76,260.92,435.88Zm9.13-7.95,31.13-31.11,6.9,7.25L277.1,435Zm55.65,8H293.26c5.49-5.42,10.4-10.27,15.31-15.14q3.58-3.54,7.13-7.13c5.64-5.69,6.05-10.45,1.41-17l8.59-8.92Zm39,.21c-9,0-17.92,0-27.16,0V397.23L368,403.69c0,9.22,0,19.29,0,29.35C368,435.29,366.82,436.1,364.72,436.1Zm0-45C336.9,391,314,368,314.11,340.24a51.1,51.1,0,0,1,51.1-50.78c27.9.06,50.76,23.24,50.56,51.28A51,51,0,0,1,364.7,391.11Z"/><path class="cls-1" d="M365,298.36a41.93,41.93,0,1,0,41.9,41.84A42.1,42.1,0,0,0,365,298.36ZM364.75,371a30.7,30.7,0,1,1,30.88-30.47A30.79,30.79,0,0,1,364.75,371Z"/></svg>