<svg id="Layer_1" data-name="Layer 1" xmlns="http://www.w3.org/2000/svg" viewBox="0 0 500 500"><defs><style>.cls-1{fill:#4540b7;}</style></defs><path class="cls-1" d="M249.75,457c-7.74-4.62-15.5-9.2-23.21-13.86-15.37-9.31-12.17-3.72-12.49-21.69-.15-8.38.07-16.77-.07-25.16a6.66,6.66,0,0,1,3.77-6.54c10.34-5.86,20.55-12,31-17.65a8.18,8.18,0,0,1,6.66-.09c10.56,5.74,20.89,11.92,31.33,17.88a6.53,6.53,0,0,1,3.53,6.3c-.07,11.77-.1,23.54,0,35.31,0,3.27-1.3,5.24-4.06,6.8-9.54,5.37-19,10.87-28.46,16.37a35,35,0,0,0-3.15,2.33Zm-27-55.08c0,7.9.42,14.94-.14,21.89-.44,5.53,1.49,8.58,6.39,10.94,6.24,3,12.11,6.79,18.83,10.63,0-9.77,0-18.66-.08-27.54a3.59,3.59,0,0,0-1.7-2.41C238.63,411,231.14,406.76,222.75,401.92Zm58.74.05c-6.43,3.7-12,7.46-18.08,10.22-5.73,2.62-7.77,6.23-7.19,12.48.63,6.61.14,13.33.14,20.81,8.51-4.89,16.21-9.29,23.85-13.79a3.13,3.13,0,0,0,1.23-2.28C281.52,420.53,281.49,411.66,281.49,402Zm-54.42-7.56c8.29,4.79,15.85,9.2,23.48,13.49a3.57,3.57,0,0,0,2.94.15c7.73-4.34,15.39-8.82,23.72-13.63-8.42-4.85-16.19-9.37-24-13.77a3.09,3.09,0,0,0-2.57.22C243,385.19,235.4,389.6,227.07,394.41Z"/><path class="cls-1" d="M189.88,249.81c0-10.29.08-20.58,0-30.86a7.32,7.32,0,0,1,4.16-7.17q27.15-15.45,54.14-31.18c2.78-1.62,5.05-1.73,7.87-.08q27,15.72,54.14,31.17a7.29,7.29,0,0,1,4.16,7.14q-.15,31.28,0,62.54c0,3.37-1.11,5.5-4.07,7.19Q283.08,304,256.09,319.73a6.94,6.94,0,0,1-7.87,0q-27.15-15.86-54.47-31.41a7,7,0,0,1-3.91-6.86C189.94,270.93,189.88,260.37,189.88,249.81Zm57.78,59.58c.09-2,.19-3.15.19-4.34,0-16.24-.06-32.48.07-48.72a5.69,5.69,0,0,0-3.32-5.73c-14.23-8-28.37-16.28-42.55-24.44-1-.57-2.06-1-3.48-1.71,0,18.65,0,36.76.07,54.88a3.88,3.88,0,0,0,1.73,2.75C215.89,291.13,231.47,300.07,247.66,309.39Zm8.71-.25a16.73,16.73,0,0,0,1.95-.75c15.1-8.68,30.22-17.32,45.23-26.16a5.58,5.58,0,0,0,2.08-4.17c.14-16.9.09-33.79.08-50.69a28,28,0,0,0-.36-3c-16.08,9.26-31.76,18.25-47.35,27.38a4.39,4.39,0,0,0-1.57,3.27C256.34,272.86,256.37,290.7,256.37,309.14Zm44.73-92.31c-.87-.65-1.26-1-1.71-1.26-14.86-8.59-29.7-17.24-44.67-25.66a6.49,6.49,0,0,0-5.38.13c-14.38,8.08-28.64,16.37-42.92,24.62-1,.59-2,1.29-3.27,2.14,15.95,9.21,31.5,18.22,47.12,27.12a4.34,4.34,0,0,0,3.61.06C269.51,235.09,285.06,226.08,301.1,216.83Z"/><path class="cls-1" d="M290.24,86.45c0,5.82-.09,11.64,0,17.46a6.67,6.67,0,0,1-3.7,6.62q-15.52,8.81-30.94,17.81a6.36,6.36,0,0,1-7.17-.1q-15.19-9-30.59-17.61a6.91,6.91,0,0,1-3.91-6.86q.21-17.46,0-34.93c0-3.26,1.2-5.23,4-6.81q15.21-8.55,30.22-17.43a7,7,0,0,1,7.93,0q15,8.84,30.23,17.43a7,7,0,0,1,3.92,6.9C290.14,74.8,290.24,80.63,290.24,86.45Zm-42.41,31.4c0-9.8,0-18.67-.06-27.55a3.14,3.14,0,0,0-1.34-2.23c-7.62-4.5-15.31-8.89-23.65-13.71,0,9.76,0,18.75.06,27.74a3.13,3.13,0,0,0,1.45,2.15C231.84,108.68,239.44,113,247.83,117.85Zm8.55,0c8.44-4.86,16.06-9.2,23.62-13.65a3.1,3.1,0,0,0,1.42-2.15c.1-9,.06-18,.06-27.71-8.37,4.83-16.08,9.24-23.73,13.75a3.06,3.06,0,0,0-1.31,2.23C256.35,99.25,256.38,108.13,256.38,117.89ZM227.07,66.83c8.29,4.79,15.86,9.21,23.49,13.5a3.58,3.58,0,0,0,3,.11c7.74-4.34,15.4-8.82,23.67-13.61-8.3-4.79-16-9.27-23.71-13.61a3.5,3.5,0,0,0-2.9.1C243,57.62,235.36,62,227.07,66.83Z"/><path class="cls-1" d="M431.92,332c0,6-.1,11.91,0,17.87a6.26,6.26,0,0,1-3.47,6.26Q413,364.94,397.56,374a6.5,6.5,0,0,1-7.22,0q-15.39-9-30.92-17.83a6.35,6.35,0,0,1-3.54-6.22q.14-17.88,0-35.74c0-3.1,1.22-5,3.88-6.45q15.39-8.66,30.59-17.61a6.35,6.35,0,0,1,7.16-.05q15.4,9,30.92,17.84a6.29,6.29,0,0,1,3.54,6.23C431.83,320.09,431.92,326.05,431.92,332Zm-33.61,31.5c8.36-4.82,15.95-9.16,23.49-13.59a3.18,3.18,0,0,0,1.53-2.11c.11-9,.07-18,.07-27.79-8.48,4.88-16.28,9.32-24,13.89a3.24,3.24,0,0,0-1,2.4C398.29,345.07,398.31,353.84,398.31,363.5Zm-8.75,0c0-9.61.09-18.4-.1-27.18,0-1.11-1.27-2.58-2.34-3.22-6.25-3.78-12.61-7.36-18.95-11-1.08-.62-2.21-1.12-3.74-1.88,0,9.41-.05,18.07.07,26.73a4,4,0,0,0,1.57,2.88C373.59,354.33,381.21,358.66,389.56,363.49Zm-20.67-51c8.24,4.77,15.88,9.23,23.6,13.58a3.45,3.45,0,0,0,2.88,0c7.73-4.34,15.38-8.8,23.66-13.58-8.36-4.83-16.14-9.35-24-13.78a2.66,2.66,0,0,0-2.24,0C385,303.18,377.2,307.7,368.89,312.5Z"/><path class="cls-1" d="M148.3,332.29c0,6-.09,11.92,0,17.87a6,6,0,0,1-3.37,5.91c-10.46,5.95-20.8,12.12-31.38,17.85a8.12,8.12,0,0,1-6.67-.07c-10.45-5.67-20.66-11.8-31-17.66A6.38,6.38,0,0,1,72.23,350q.1-17.86,0-35.73A6.68,6.68,0,0,1,76,307.77q15.38-8.62,30.58-17.6a6.61,6.61,0,0,1,7.52,0q15,8.84,30.23,17.4c2.77,1.56,4.11,3.53,4,6.82C148.16,320.38,148.3,326.34,148.3,332.29ZM80.82,320c0,9.57-.1,18.2.11,26.83a5.34,5.34,0,0,0,2.42,3.57c4.68,2.94,9.53,5.6,14.33,8.35,2.6,1.48,5.22,2.92,8.28,4.63,0-9.4.05-18-.06-26.67a4,4,0,0,0-1.35-3C97,329.17,89.24,324.8,80.82,320Zm59,0c-5.34,3.06-9.67,6.25-14.5,8.15-8.77,3.47-12.14,9.21-10.73,18.58.78,5.2.14,10.61.14,16.74,8.45-4.87,16.05-9.2,23.57-13.66a3.54,3.54,0,0,0,1.46-2.57C139.82,338.5,139.78,329.73,139.78,320ZM85.26,312.5c8.18,4.74,15.74,9.15,23.36,13.45a3.48,3.48,0,0,0,2.87.24c7.83-4.36,15.57-8.87,23.92-13.67-8.33-4.82-16-9.3-23.73-13.64a3.52,3.52,0,0,0-2.94.12C101.11,303.29,93.55,307.71,85.26,312.5Z"/><path class="cls-1" d="M148.3,168.26c0,6-.09,11.92,0,17.87a6,6,0,0,1-3.23,6c-10.58,6-21,12.26-31.72,18.08a7.64,7.64,0,0,1-6.26-.1q-16-8.73-31.66-18.18a7.22,7.22,0,0,1-3.06-5.1c-.27-12.32-.3-24.64,0-37A8.14,8.14,0,0,1,76,144.22c10.16-6.19,20.58-11.94,30.83-18a6.33,6.33,0,0,1,7.16,0q15.39,9,30.92,17.84a6.28,6.28,0,0,1,3.48,6.28C148.2,156.35,148.3,162.31,148.3,168.26ZM106,199.64c0-9.62,0-18.51-.06-27.41a3,3,0,0,0-1.18-2.26c-7.74-4.58-15.54-9-23.89-13.85,0,9.67-.06,18.56.08,27.45a4,4,0,0,0,1.86,2.69C90.2,190.65,97.71,194.91,106,199.64Zm33.83-43.43c-4.47,2.54-8.21,4.62-11.92,6.78-4.31,2.51-10.22,4.13-12.41,7.9s-.69,9.7-.77,14.69c0,2.71,0,5.41,0,8.11v6c8.31-4.78,15.82-9,23.22-13.44a4.45,4.45,0,0,0,1.8-3.2C139.85,174.39,139.79,165.75,139.79,156.21Zm-4.37-7.53c-8.12-4.69-15.81-9.16-23.55-13.54a3.17,3.17,0,0,0-2.56-.28c-7.91,4.45-15.76,9-24.06,13.82,8.16,4.7,15.73,9.12,23.37,13.39a3.9,3.9,0,0,0,3.24.08C119.63,157.83,127.31,153.35,135.42,148.68Z"/><path class="cls-1" d="M431.92,168.23c0,6.1.25,12.2-.15,18.27a7.83,7.83,0,0,1-3.1,5.47q-15.6,9.48-31.62,18.24a7.62,7.62,0,0,1-6.27-.08q-16-8.73-31.64-18.2a7.66,7.66,0,0,1-3.08-5.48c-.27-12.18-.29-24.37,0-36.54a8.13,8.13,0,0,1,3.47-5.68c10.16-6.19,20.58-11.94,30.83-18a6.35,6.35,0,0,1,7.16,0q15.4,9,30.93,17.83a6.31,6.31,0,0,1,3.49,6.28C431.83,156.32,431.92,162.28,431.92,168.23Zm-42.36,31.4c0-9.61,0-18.5-.05-27.38a3.1,3.1,0,0,0-1.17-2.28c-7.73-4.57-15.53-9-23.9-13.87,0,9.69-.06,18.57.08,27.44a4,4,0,0,0,1.86,2.72C373.81,190.65,381.31,194.9,389.56,199.63Zm33.86-43.48c-8.38,4.82-16,9.16-23.54,13.63a3.51,3.51,0,0,0-1.5,2.5c-.1,8.88-.06,17.77-.06,27.37,8.29-4.77,16-9.16,23.63-13.69a3.57,3.57,0,0,0,1.41-2.61C423.46,174.58,423.42,165.81,423.42,156.15Zm-4.4-7.46c-6.54-3.8-12.84-7-18.58-10.94-4.65-3.22-8.33-3.2-13,0-5.76,4-12.08,7.15-18.59,10.93,8.21,4.73,15.79,9.13,23.43,13.42a3.54,3.54,0,0,0,2.9.22C403.06,157.94,410.83,153.41,419,148.69Z"/><path class="cls-1" d="M302.7,389c-.94-.66-2.62-1.24-3.1-2.34-.56-1.27-.22-3.05.07-4.53.12-.63,1.08-1.18,1.76-1.58q19.47-11.26,39-22.47c2.31-1.33,4.5-1.14,6.05,1.14a3.87,3.87,0,0,1-1.29,6c-13.3,7.77-26.67,15.41-40,23.07A14.31,14.31,0,0,1,302.7,389Z"/><path class="cls-1" d="M201.24,389.3c-1.75-.9-2.85-1.39-3.89-2-12.29-7.06-24.55-14.16-36.87-21.19-2.65-1.51-4.55-3.45-2.92-6.48,1.76-3.28,4.5-2.6,7.29-1,12.38,7.18,24.8,14.28,37.22,21.4,2.31,1.33,4.11,3.13,2.89,5.85C204.32,387.33,202.48,388.22,201.24,389.3Z"/><path class="cls-1" d="M201.54,111.05c1.16,1,2.85,1.79,3.29,3a6.52,6.52,0,0,1-.66,4.46c-.46,1-1.83,1.51-2.87,2.11q-18,10.44-36.1,20.81a13.85,13.85,0,0,1-1.77,1c-2.45,1-5,.71-5.75-1.84a6.36,6.36,0,0,1,1.63-5.44c2.52-2.16,5.72-3.52,8.64-5.2q14.55-8.4,29.1-16.77C198.3,112.45,199.67,111.92,201.54,111.05Z"/><path class="cls-1" d="M302.61,111c1.8.78,2.95,1.16,4,1.75q18.6,10.68,37.17,21.42c2.56,1.47,4.6,3.33,2.84,6.48s-4.34,2.62-7,1.1c-12.62-7.29-25.29-14.48-37.79-22a6.81,6.81,0,0,1-2.58-5.12C299.25,113.46,301.43,112.23,302.61,111Z"/><path class="cls-1" d="M327.08,211.83c-1.67-1.56-3.5-2.49-3.86-3.82s.21-3.91,1.24-4.57c5.54-3.55,11.27-6.83,17.14-9.82,1.07-.54,3.64.29,4.47,1.32s1,4.12.34,4.59C340.26,203.76,333.85,207.6,327.08,211.83Z"/><path class="cls-1" d="M326.41,289a37.47,37.47,0,0,1,3.93,1.61c4.57,2.57,9.09,5.22,13.64,7.84,2.61,1.51,4.37,3.49,2.52,6.55-1.69,2.77-4.18,2.45-6.68,1-4.9-2.82-9.92-5.44-14.6-8.59-1.29-.87-2.13-3.36-2-5C323.29,291.19,325.29,290.11,326.41,289Z"/><path class="cls-1" d="M177,288.61c1.65,1.38,3.53,2.22,3.95,3.52s0,3.95-1,4.58c-5.64,3.61-11.49,7-17.46,10-1,.52-3.63-.44-4.41-1.51s-.86-4.11-.11-4.62C164,296.44,170.32,292.71,177,288.61Z"/><path class="cls-1" d="M177.37,211.23a31.59,31.59,0,0,1-3-1.25q-7.36-4.2-14.7-8.46c-2.41-1.41-3.54-3.5-2.08-6.09s3.77-2.85,6.25-1.43c5,2.86,10.17,5.56,14.94,8.81,1.36.92,2.28,3.56,2.1,5.28C180.79,209.32,178.49,210.31,177.37,211.23Z"/></svg>