<svg id="Layer_1" data-name="Layer 1" xmlns="http://www.w3.org/2000/svg" viewBox="0 0 500 500"><defs><style>.cls-1{fill:#4540b7;}</style></defs><path class="cls-1" d="M39,395.88V105a5.21,5.21,0,0,0,.55-1.11c6.05-26.51,23.07-40.12,50.2-40.12h99.58q112,0,224,0c28.09,0,48.83,20.2,48.85,47.73q.11,139.05-.09,278.09a51.1,51.1,0,0,1-2.68,16.17c-6.65,19.59-24.32,31.43-46.18,31.43q-162.58,0-325.19,0c-1.52,0-3,0-4.55-.1A47.19,47.19,0,0,1,40.9,403.43C40.18,400.94,39.63,398.39,39,395.88Zm14.22-220c-.08,1.41-.2,2.62-.2,3.83q0,104.31,0,208.63c0,20.75,14,34.76,34.76,34.76q162.78.06,325.56,0a39.22,39.22,0,0,0,10.2-1.2c15.57-4.22,24.6-16.77,24.6-33.92q0-103.91,0-207.81v-4.26ZM448,161.47c.07-1.45.17-2.67.17-3.88,0-15,.05-30,0-45-.07-20.72-14-34.8-34.76-34.81q-162.81-.08-325.62,0c-20.72,0-34.68,14.09-34.75,34.82-.05,15,0,30,0,45,0,1.21.1,2.42.17,3.87Z"/><path class="cls-1" d="M269.58,224.84c-1.63,7.83-3.4,16.44-5.21,25q-11,52.46-22.1,104.91c-.23,1.08-.46,2.15-.74,3.22-1.18,4.47-4.63,6.94-8.37,6-4-1-6.13-4.4-5.24-8.9,1.72-8.63,3.56-17.23,5.37-25.84Q244.39,276.63,255.5,224c.69-3.28,1.92-6.05,5.41-7.11C265.4,215.49,269.66,219,269.58,224.84Z"/><path class="cls-1" d="M171.57,289.92l29.84,25.42c2.83,2.41,5.74,4.73,8.47,7.24,3.41,3.13,3.87,7.33,1.31,10.26s-6.73,3.37-10.3.36q-22.09-18.65-44-37.49c-4.19-3.61-4.13-8,.13-11.69q21.74-18.75,43.69-37.24c3.76-3.18,8-2.91,10.6.28s1.92,7.28-1.84,10.51q-16.44,14.13-33,28.14C175,287,173.54,288.22,171.57,289.92Z"/><path class="cls-1" d="M329.48,289.78l-32.22-27.47c-2-1.7-4-3.33-6-5.11-3.38-3.14-3.86-7.24-1.32-10.25s6.73-3.33,10.3-.34c10.56,8.84,21,17.81,31.47,26.74,4.09,3.48,8.24,6.89,12.23,10.48,4.53,4.06,4.53,8.28-.1,12.25q-21.45,18.44-43.06,36.69c-4,3.39-8.17,3.3-10.93,0-2.54-3.06-1.92-7.31,1.82-10.52,11.59-10,23.26-19.82,34.89-29.73C327.52,291.7,328.36,290.83,329.48,289.78Z"/><path class="cls-1" d="M68.45,120A22.08,22.08,0,0,1,90.3,97.81,22.11,22.11,0,1,1,68.45,120Zm30-.21a8.31,8.31,0,0,0-7.91-8A8.09,8.09,0,0,0,90.3,128,8.32,8.32,0,0,0,98.49,119.83Z"/><path class="cls-1" d="M248.29,120.33a22,22,0,1,1-22-22A21.9,21.9,0,0,1,248.29,120.33Zm-14,0a8,8,0,1,0-8.17,8A8,8,0,0,0,234.28,120.31Z"/><path class="cls-1" d="M136.4,119.91a22,22,0,1,1,21.77,22.24A21.86,21.86,0,0,1,136.4,119.91Zm21.94-7.78a8,8,0,0,0,.06,16,8,8,0,0,0-.06-16Z"/></svg>