<svg id="Layer_1" data-name="Layer 1" xmlns="http://www.w3.org/2000/svg" viewBox="0 0 500 500"><defs><style>.cls-1{fill:#4540b7;}</style></defs><path class="cls-1" d="M397.07,193.3c-4.54-8.68-13-12.14-22.6-11.51s-17.15,5.28-21.41,14.36c-.47,1-.91,2-1.38,3,0,.09-.19.13-.29.2-17.88-2-24.81,1.68-32.61,17.27-11.71-2.83-21.65.13-29.87,10.85v-5.33q0-67.76,0-135.52a36.8,36.8,0,0,0-.87-8.84,21.2,21.2,0,0,0-20.39-16.09q-59.16-.13-118.31,0V61.5H92v.18l-2.15,0a21.81,21.81,0,0,0-21.08,21c0,1.48,0,3,0,4.46V415.91c0,16,3.33,21.06,17.87,27.09H271.28c13.5-4.39,18.14-14,17.77-27.71-.53-19.34-.14-38.72-.14-58.08v-4.87c6.07,3,11.32,5.72,16.71,8.13a32.47,32.47,0,0,1,15.63,14.72c8.6,15.71,28.14,23.12,44.52,16.05,10.89-4.69,21.29-10.51,31.76-16.16L432,357.39l-.18-.35.11-.06a33.79,33.79,0,0,0,14.34-15.65c1.54-3.46,2.5-7.19,3.72-10.79v-9.68c-7.21-21.71-13.24-43.9-22-65C419.14,234.43,407.87,213.92,397.07,193.3ZM80.35,81.16c.51-5,5.07-8.16,10.42-8.28,4.59-.11,9.18,0,13.78,0a9.66,9.66,0,0,0,2.51-.33h28.43a10.46,10.46,0,0,0,2.69.34H264c10,0,13.72,3.67,13.74,13.64,0,4.31,0,8.62,0,13.09H80.2C80.2,93.43,79.73,87.24,80.35,81.16ZM264,147.53c-.11-8.16-5.46-13.53-13.59-13.54q-71.67,0-143.33,0c-7.86,0-13.43,5.38-13.53,13.29-.16,13.16-.18,26.32,0,39.47.12,8.13,5.82,13.24,14.36,13.24,34.62,0,69.24.1,103.86-.1,4.33,0,6.45,1.32,8.42,5.14,12.51,24.36,25.32,48.58,38,72.84.67,1.28,1.29,2.58,2.44,4.89-4-2-7-3.61-10-5.14-2.1-1.07-4.12-2.72-6.33-3-5-.73-5.75-3.87-6.52-8.06a60.08,60.08,0,1,0-18.2,55.57l2.48-2.31c18.11,8.78,36,17.46,53.93,26.23a3.42,3.42,0,0,1,1.64,2.48c.14,6.68.07,13.36.07,20.34H80.08V111.14H277.39V206.4c-2.75-5.2-4.75-9.67-7.35-13.77A38.27,38.27,0,0,1,263.89,168C264.46,161.22,264.07,154.35,264,147.53ZM252.83,163.8c-20-13.72-43.85,2.78-40.52,25H109.76c-5,0-5.1-.09-5.11-4.9,0-11.41.11-22.82-.07-34.23,0-3.62,1.18-4.64,4.74-4.63q69.57.15,139.15,0c3.48,0,4.59,1.09,4.42,4.48C252.66,154.1,252.83,158.66,252.83,163.8Zm-40,145.25c1.32,2.56.63,3.69-1.16,5.19-15.93,13.33-33.71,16.66-52.7,8.23-19.17-8.52-28.38-24.24-29.19-41,.12-29.82,19.89-50.6,46.33-52.69,24.11-1.9,47.2,16.65,51.16,41.09.39,2.39.22,3.86-2.54,5.12A24.57,24.57,0,0,0,212.81,309.05Zm64.92,109.86c0,9-4,12.91-13,12.92H92.86c-9,0-12.94-3.95-13-12.89q0-17.31,0-34.61V380.5H277.53c.08,1.25.2,2.34.2,3.42C277.75,395.59,277.77,407.25,277.73,418.91Zm158.33-105c5.65,13.18,2.18,25.91-10,33.63a11,11,0,0,0-2,1.58L398.86,362a7,7,0,0,0-.8.28c-1,.43-2,1-3,1.5-9.88,5.17-19.72,10.43-29.66,15.49-13.73,7-27.88,2.68-35.22-10.85a39.2,39.2,0,0,0-18-17.13c-7.6-3.64-15.12-7.45-22.67-11.18-20.1-9.95-40.22-19.85-60.29-29.86-7.52-3.75-9.85-11.4-6-18.88,3.75-7.32,11-9.6,18.53-5.82,2.22,1.11,4.41,2.28,6.6,3.43,7.34,3.88,14.69,7.74,22,11.65,2.63,1.4,5.21,1.84,7.54-.4s2.07-5.1.54-7.83c-.3-.54-.58-1.09-.87-1.64Q252.23,242.38,226.87,194a40.35,40.35,0,0,1-2.07-4.36,14.72,14.72,0,0,1,7.81-18.66c6.86-3.19,13-.69,17.16,6.95.24.44.47.88.7,1.32l45.38,86.62c2.55,4.87,5.15,6.15,8.63,4.27s3.76-4.65,1.19-9.57c-2.47-4.72-4.92-9.45-7.43-14.15a11.62,11.62,0,0,1-.76-10.06c2.1-5.42,6.08-8.71,11.91-9.35s9.43,1.45,12.43,7.19c2.53,4.83,5,9.67,7.58,14.5,2.37,4.5,5.05,5.73,8.48,3.92,3.27-1.72,3.76-4.56,1.49-8.93-2.91-5.61-6-11.12-8.67-16.86a11.1,11.1,0,0,1-.71-6.68c1.34-5.76,5.5-9,11.16-10.13,5.83-1.14,10.11,1.11,12.84,6.32,2.82,5.38,5.59,10.78,8.46,16.14,1.95,3.63,4.8,4.68,7.93,3.07s3.9-4.47,2-8.25c-2.88-5.62-5.7-11.29-8.83-16.78-2.2-3.84-1.68-7.39.39-10.88a13.93,13.93,0,0,1,24.38.59q10.11,18.84,19.83,37.88a281.78,281.78,0,0,1,20,51.94A195.79,195.79,0,0,0,436.06,313.91Z"/><path class="cls-1" d="M195.35,391.15q-16.56-.39-33.13,0c-8.73.2-14.3,6.23-14.36,14.82s5.61,14.66,14.56,14.95c5.45.17,10.92,0,16.38,0s10.92.14,16.38,0c8.88-.29,14.33-5.91,14.44-14.6C209.72,397.41,204.29,391.36,195.35,391.15ZM194,409.81c-5.08,0-10.16,0-15.23,0H163.53c-2.61,0-4.81-.61-4.76-3.81s2.3-3.76,4.88-3.76h30.46c2.66,0,4.82.86,4.8,3.88S196.6,409.83,194,409.81Z"/><path class="cls-1" d="M202.41,254.59Q186.2,270.75,170,287c-.95.94-1.95,1.84-3.29,3.12-3.94-4-7.71-7.93-11.56-11.75-3-3-6-3.21-8.48-.85-2.73,2.58-2.59,5.5.57,8.7q7.3,7.43,14.74,14.74c3.61,3.55,6.25,3.54,9.89-.09q19.24-19.17,38.42-38.43c3-3,3.19-6,.82-8.48S205.48,251.53,202.41,254.59Z"/></svg>