<?xml version="1.0" encoding="utf-8"?>
<!-- Generator: Adobe Illustrator 26.0.2, SVG Export Plug-In . SVG Version: 6.00 Build 0)  -->
<svg version="1.1" id="Layer_1" xmlns="http://www.w3.org/2000/svg" xmlns:xlink="http://www.w3.org/1999/xlink" x="0px" y="0px"
	 viewBox="0 0 698.57 187.88" style="enable-background:new 0 0 698.57 187.88;" xml:space="preserve">
<style type="text/css">
	.st0{fill:#00C9DB;}
	.st1{fill:#FFFFFF;}
</style>
<path class="st0" d="M198.57,101.5c0.51-6.24,0.4-12.54-0.36-18.83c-2.96-24.67-15.36-46.71-34.9-62.05
	C143.78,5.28,119.43-1.54,94.76,1.42C70.25,4.37,48.33,16.63,33,35.96c-2.5-0.53-5.12-0.68-7.8-0.36
	C12.18,37.17,2.85,49.03,4.42,62.06c0.82,6.83,4.48,12.65,9.65,16.4c-1.44,8.67-1.64,17.51-0.57,26.41
	c2.96,24.67,15.36,46.71,34.9,62.05c19.54,15.35,43.88,22.17,68.55,19.2s46.71-15.36,62.05-34.9c1.36-1.74,2.67-3.53,3.91-5.36
	c2.37,0.46,4.85,0.57,7.37,0.27c13.02-1.56,22.35-13.43,20.78-26.46C210.1,111.65,205.22,105.04,198.57,101.5z M49.91,68.55
	l65.74-7.9l-46.09,70.63c-1.41,2.16-1.44,4.94-0.08,7.14c1.36,2.19,3.86,3.4,6.43,3.1l89.34-10.45c1.33,3.46,3.45,6.5,6.1,8.94
	c-0.79,1.12-1.6,2.21-2.44,3.29c-13.23,16.84-32.22,27.52-53.48,30.07c-21.26,2.55-42.24-3.32-59.08-16.55
	c-16.84-13.23-27.52-32.22-30.07-53.48c-0.82-6.85-0.77-13.67,0.14-20.39c1.47,0.1,2.96,0.07,4.47-0.11
	C39.61,81.79,46.67,76.11,49.91,68.55z M164.13,117.81l-75.67,8.85l46.12-70.67c1.41-2.16,1.44-4.95,0.08-7.14
	c-1.36-2.19-3.88-3.4-6.44-3.09l-76.77,9.22c-0.91-5.06-3.4-9.49-6.88-12.85c13.13-15.6,31.39-25.49,51.73-27.94
	c21.26-2.55,42.24,3.32,59.08,16.55s27.52,32.22,30.07,53.48c0.58,4.85,0.72,9.73,0.43,14.57c-0.42,0.03-0.85,0.07-1.27,0.12
	C174.17,100.15,166.11,108.03,164.13,117.81z M26.79,48.8c5.74-0.69,10.98,3.42,11.67,9.16c0.69,5.74-3.42,10.98-9.16,11.67
	s-10.98-3.42-11.67-9.16S21.04,49.49,26.79,48.8z M188.7,132.93c-5.74,0.69-10.98-3.42-11.67-9.16s3.42-10.98,9.16-11.67
	c5.74-0.69,10.98,3.42,11.67,9.16C198.55,127.01,194.44,132.24,188.7,132.93z"/>
<g>
	<path class="st1" d="M322.86,47.04v-8.43c0-1.61-1.23-2.91-2.75-2.91H248c-1.52,0-2.75,1.31-2.75,2.91v9.83
		c0,1.61,1.23,2.91,2.75,2.91h45.89c2.32,0,3.6,2.86,2.13,4.76l-51.09,66.04c-0.4,0.52-0.62,1.17-0.62,1.85v8.43
		c0,1.61,1.23,2.91,2.75,2.91h74.93c1.52,0,2.75-1.31,2.75-2.91v-9.83c0-1.61-1.23-2.91-2.75-2.91h-48.71
		c-2.32,0-3.6-2.86-2.13-4.76l51.09-66.04C322.64,48.37,322.86,47.72,322.86,47.04z"/>
	<path class="st1" d="M340.74,135.35h11.17c1.52,0,2.75-1.31,2.75-2.91V62.25c0-1.61-1.23-2.91-2.75-2.91h-11.17
		c-1.52,0-2.75,1.31-2.75,2.91v70.19C337.98,134.04,339.22,135.35,340.74,135.35z"/>
	<path class="st1" d="M346.32,25.45c-3.14,0-5.72,1.05-7.73,3.13c-2.02,2.09-3.03,4.56-3.03,7.4c0,3.04,1.01,5.6,3.03,7.69
		c2.02,2.09,4.59,3.13,7.73,3.13c3.23,0,5.83-1.07,7.8-3.2c1.97-2.14,2.96-4.72,2.96-7.76c0-3.03-1.01-5.53-3.03-7.47
		C352.04,26.42,349.46,25.45,346.32,25.45z"/>
	<path class="st1" d="M429.05,63.17c-5.47-3.23-11.7-4.84-18.7-4.84c-6.01,0-11.43,1.4-16.28,4.2c-1.04,0.6-2.02,1.27-2.96,2.01
		c-1.84,1.45-4.44,0.13-4.44-2.3v0c0-1.61-1.23-2.91-2.75-2.91h-10.5c-1.52,0-2.75,1.31-2.75,2.91v97.8c0,1.61,1.23,2.91,2.75,2.91
		h11.17c1.52,0,2.75-1.31,2.75-2.91v-27.34c0-2.37,2.54-3.77,4.34-2.37c0.85,0.66,1.73,1.26,2.66,1.81c4.75,2.8,10.09,4.2,16.01,4.2
		c6.99,0,13.22-1.61,18.7-4.84c5.47-3.23,9.8-7.76,12.98-13.6c3.18-5.84,4.78-12.69,4.78-20.57c0-7.78-1.59-14.61-4.78-20.5
		C438.84,70.96,434.51,66.4,429.05,63.17z M426.89,109.87c-1.88,3.61-4.42,6.4-7.6,8.4c-3.18,1.99-6.84,2.99-10.96,2.99
		c-3.95,0-7.53-1-10.76-2.99c-3.23-1.99-5.78-4.79-7.67-8.4c-1.88-3.61-2.82-7.78-2.82-12.53c0-4.84,0.94-9.04,2.82-12.6
		c1.88-3.56,4.44-6.31,7.67-8.26c3.23-1.94,6.81-2.92,10.76-2.92c4.12,0,7.78,0.97,10.96,2.92c3.18,1.95,5.72,4.7,7.6,8.26
		c1.88,3.56,2.82,7.76,2.82,12.6C429.72,102.09,428.78,106.26,426.89,109.87z"/>
	<path class="st1" d="M515.13,63.17c-5.47-3.23-11.7-4.84-18.7-4.84c-6.01,0-11.43,1.4-16.28,4.2c-1.04,0.6-2.02,1.27-2.96,2.01
		c-1.84,1.45-4.44,0.13-4.44-2.3v0c0-1.61-1.23-2.91-2.75-2.91h-10.5c-1.52,0-2.75,1.31-2.75,2.91v97.8c0,1.61,1.23,2.91,2.75,2.91
		h11.17c1.52,0,2.75-1.31,2.75-2.91v-27.34c0-2.37,2.54-3.77,4.34-2.37c0.85,0.66,1.73,1.26,2.66,1.81c4.75,2.8,10.09,4.2,16.01,4.2
		c6.99,0,13.22-1.61,18.7-4.84c5.47-3.23,9.8-7.76,12.98-13.6c3.18-5.84,4.78-12.69,4.78-20.57c0-7.78-1.59-14.61-4.78-20.5
		C524.93,70.96,520.6,66.4,515.13,63.17z M512.98,109.87c-1.88,3.61-4.42,6.4-7.6,8.4c-3.18,1.99-6.84,2.99-10.96,2.99
		c-3.95,0-7.53-1-10.76-2.99c-3.23-1.99-5.78-4.79-7.67-8.4c-1.88-3.61-2.82-7.78-2.82-12.53c0-4.84,0.94-9.04,2.82-12.6
		c1.88-3.56,4.44-6.31,7.67-8.26c3.23-1.94,6.81-2.92,10.76-2.92c4.12,0,7.78,0.97,10.96,2.92c3.18,1.95,5.72,4.7,7.6,8.26
		c1.88,3.56,2.82,7.76,2.82,12.6C515.8,102.09,514.86,106.26,512.98,109.87z"/>
	<path class="st1" d="M567.72,76.48c3.32-1.94,7.04-2.92,11.16-2.92c3.59,0,6.93,0.88,10.02,2.63c2.46,1.4,4.62,3.34,6.48,5.84
		c0.85,1.14,2.36,1.45,3.55,0.71l8.31-5.18c1.32-0.83,1.77-2.65,0.96-4.04c-2.63-4.53-6.21-8.08-10.76-10.64
		c-5.38-3.04-11.52-4.56-18.43-4.56c-7.53,0-14.24,1.69-20.11,5.05c-5.87,3.37-10.47,7.95-13.79,13.74
		c-3.32,5.79-4.98,12.53-4.98,20.22c0,7.59,1.66,14.31,4.98,20.14c3.32,5.84,7.91,10.44,13.79,13.81
		c5.87,3.37,12.58,5.05,20.11,5.05c6.9,0,13.05-1.54,18.43-4.63c4.53-2.6,8.11-6.12,10.73-10.57c0.82-1.39,0.37-3.22-0.95-4.05
		l-8.26-5.15c-1.19-0.74-2.72-0.42-3.57,0.74c-1.86,2.57-4.03,4.55-6.48,5.94c-3.09,1.76-6.44,2.63-10.02,2.63
		c-4.13,0-7.85-0.97-11.16-2.92c-3.32-1.94-5.92-4.72-7.8-8.33c-1.88-3.61-2.82-7.83-2.82-12.67s0.94-9.04,2.82-12.6
		C561.8,81.18,564.4,78.43,567.72,76.48z"/>
	<path class="st1" d="M682.66,77.12c-3.27-5.79-7.8-10.37-13.59-13.74c-5.78-3.37-12.4-5.05-19.84-5.05
		c-7.35,0-13.9,1.69-19.64,5.05c-5.74,3.37-10.27,7.95-13.58,13.74c-3.32,5.79-4.98,12.53-4.98,20.22c0,7.5,1.66,14.19,4.98,20.07
		c3.32,5.89,7.87,10.51,13.65,13.88c5.78,3.37,12.31,5.05,19.57,5.05c7.35,0,13.94-1.68,19.77-5.05
		c5.83-3.37,10.38-7.97,13.65-13.81c3.27-5.84,4.91-12.55,4.91-20.14C687.57,89.65,685.93,82.91,682.66,77.12z M667.86,109.94
		c-1.84,3.65-4.37,6.45-7.6,8.4c-3.23,1.95-6.91,2.92-11.03,2.92c-3.95,0-7.53-0.97-10.76-2.92c-3.23-1.94-5.78-4.74-7.67-8.4
		c-1.88-3.65-2.82-7.85-2.82-12.6c0-4.84,0.94-9.04,2.82-12.6c1.88-3.56,4.44-6.31,7.67-8.26c3.23-1.94,6.86-2.92,10.9-2.92
		c4.04,0,7.67,0.97,10.9,2.92c3.23,1.95,5.76,4.7,7.6,8.26c1.84,3.56,2.76,7.76,2.76,12.6C670.62,102.09,669.7,106.29,667.86,109.94
		z"/>
</g>
</svg>
