<svg id="Layer_1" data-name="Layer 1" xmlns="http://www.w3.org/2000/svg" viewBox="0 0 500 500"><defs><style>.cls-1{fill:#4540b7;}</style></defs><path class="cls-1" d="M426.55,116.18c-2.24-13.78-14.34-23.38-29.42-23.38H397c-51.3.12-103.46.1-153.91.09H183.41a18.8,18.8,0,0,0-2.85.13l-.18,0H152.11a5.15,5.15,0,0,0-1-.11h0A5.65,5.65,0,0,0,150,93h-30.6a11.59,11.59,0,0,0-1.72-.15c-7.91,0-15.94,0-23.72,0H91.47c-18.09,0-29.79,11.71-29.81,29.73,0,28.76,0,59.66,0,90.76a34,34,0,0,0,1,8.95C66.3,235.24,76.81,243,90.85,243q35.64,0,71.28,0h33.52l.12.86c0,.16,0,.29.07.39a2,2,0,0,1,0,.95c-.25,1-.51,1.92-.79,2.8a92.19,92.19,0,0,0,131,109.07,6.39,6.39,0,0,1,2.94-.89,5.15,5.15,0,0,1,3.65,1.9c15.85,16,32.05,32.16,47.71,47.8l4.5,4.49a58.52,58.52,0,0,0,4.69,4.26c8,6.39,20.16,6.35,28.36-.08,4.3-3.37,7.09-8,9.06-15v-6.92c-1.79-7.66-6.83-13.25-11.54-17.72-3.17-3-6.29-6.16-9.31-9.21-1.31-1.32-2.63-2.67-4-4h0l-3.61-3.54-.16-.15h0l-16.86-16.47a6.59,6.59,0,0,0-2.19-2.14l-17.15-16.77a88,88,0,0,0,9.69-22c4.82-17.1,4.27-36.07-1.64-56.36l-.38-1.28h1.34c2.62,0,5.22,0,7.82.06,6,.06,12.26.13,18.33-.19A40.42,40.42,0,0,0,411.21,240c8.11-3.51,13.24-10.12,15.23-19.66a8.38,8.38,0,0,1,.43-1.31l.13-.33V117.24l0,0A2.85,2.85,0,0,1,426.55,116.18ZM388.37,365a12.55,12.55,0,0,0,1.8,2.2q3.93,3.91,7.85,7.85,6.33,6.35,12.69,12.67c3.27,3.25,4.49,6.71,3.72,10.58a10.91,10.91,0,0,1-6.87,8.15,11.08,11.08,0,0,1-10.68-1.66A10.14,10.14,0,0,1,396,404l-55.62-55.69.78-.71a121.51,121.51,0,0,0,14.11-15Zm-48.86-33a79.27,79.27,0,0,1-56.4,23.49H283a79.93,79.93,0,0,1-.1-159.85h.35A80.18,80.18,0,0,1,363,275.51,79.3,79.3,0,0,1,339.51,332Zm75.13-118c0,10.21-6.4,16.59-16.67,16.63q-6,0-12,0c-6.16,0-12.54,0-18.8.06a5.58,5.58,0,0,1-5.39-3.06,91.66,91.66,0,0,0-45.37-38,20.17,20.17,0,0,1-2-1l-.93-.48-.89-.44,11.86-24.55,4.45,8.57c3,5.7,5.81,11.18,8.63,16.67,1.51,2.92,3.42,4.29,6,4.29h0c2.66,0,4.56-1.39,6-4.34l5.85-12.19c3.63-7.54,7.37-15.33,11-23a8.09,8.09,0,0,0,.71-6.16,5.68,5.68,0,0,0-3.12-3.22c-3.42-1.6-6.7,0-8.77,4.21-1.93,3.95-3.82,7.9-5.71,11.86q-2,4.08-3.91,8.15a14.15,14.15,0,0,1-1,1.7c-.19.29-.4.6-.62,1l-.93,1.48-4.31-8.29c-2.87-5.51-5.66-10.87-8.42-16.25-1.6-3.15-3.52-4.5-6.28-4.43s-4.44,1.47-5.88,4.52c-2.94,6.22-6,12.52-9,18.61l-.84,1.72a12.83,12.83,0,0,1-1,1.66c-.2.29-.41.61-.64,1l-.93,1.47-.8-1.55c-1.26-2.43-2.49-4.82-3.71-7.19-2.86-5.57-5.57-10.83-8.39-16.12a7.47,7.47,0,0,0-4.28-3.88,5.83,5.83,0,0,0-4.54.56c-3.11,1.68-4,5.29-2.11,9,2.07,4.14,4.25,8.31,6.36,12.34q1.68,3.21,3.35,6.42c1.2,2.33,2.39,4.67,3.68,7.21l2.85,5.58-1.89-.25a95.78,95.78,0,0,0-38.36,2.51l-2.08.55,4-8.34c2.4-5,4.68-9.75,6.94-14.52.47-1,1-2,1.43-3,1.61-3.34,3.27-6.79,4.64-10.27a5.62,5.62,0,0,0-2.83-7.26,5.83,5.83,0,0,0-7.83,2.11,30.2,30.2,0,0,0-2.2,4.09l-.41.83c-2.27,4.69-4.53,9.39-6.88,14.25l-3.61,7.51-.92-1.77-3.52-6.73c-2.83-5.41-5.51-10.53-8.15-15.74-1.64-3.25-3.3-5.27-6.52-5.27a5.45,5.45,0,0,0-3.95,1.5,12.93,12.93,0,0,0-2.66,4.08c-2.45,5.26-5,10.56-7.5,15.68l-1.64,3.39a18.93,18.93,0,0,1-1.06,1.86c-.2.32-.41.66-.63,1l-.92,1.56-.83-1.6c-1.26-2.43-2.49-4.83-3.71-7.2-2.92-5.67-5.68-11-8.59-16.41-2-3.63-5.32-4.87-8.58-3.16a6,6,0,0,0-2.55,8.22c5.64,11.18,12.36,24.37,19.47,37.49a5.75,5.75,0,0,0,4.91,3.2,6.61,6.61,0,0,0,5.68-3.31,26,26,0,0,0,1.37-2.69c.17-.35.33-.71.5-1.06,2.38-4.91,4.75-9.82,7.22-14.93l3.69-7.64,14.57,28.11-.76.49-.53.36a8.07,8.07,0,0,1-.95.58,95.15,95.15,0,0,0-38.71,35.51c-1,1.61-3.66,2.33-5.24,2.34-35.31.1-71.21.09-105.92.07H91.33c-11.17,0-17.32-6.19-17.32-17.43q0-45.19,0-90.4c0-11.49,6.06-17.57,17.52-17.58,3,0,6.09,0,9.13,0,5.59,0,11.37,0,17,0a9.23,9.23,0,0,0,1.6-.16H150a5.2,5.2,0,0,0,1.05.12h0a5,5,0,0,0,1.08-.12h28.25a20.4,20.4,0,0,0,3.45.17H397.56c10.85,0,17.07,6.18,17.08,16.94C414.67,157.33,414.67,186.51,414.64,214Z"/><path class="cls-1" d="M174.19,143.34c-3.78-.91-6.07,1.94-7.32,4.49-2.58,5.24-5.07,10.43-7.72,15.93q-1.65,3.45-3.37,7l-.83,1.73-1.68-3c-.45-.81-.84-1.49-1.2-2.18q-1.71-3.29-3.4-6.59c-2.33-4.51-4.73-9.18-7.19-13.71a6.83,6.83,0,0,0-5.54-3.92,6.07,6.07,0,0,0-5.28,2.82,19,19,0,0,0-1.38,2.58l-.36.77c-2.57,5.3-5.13,10.6-7.78,16.09l-3.46,7.16L116,169.39c-.45-.81-.83-1.49-1.18-2.17l-3.35-6.47c-2.24-4.35-4.56-8.84-6.88-13.22-1.31-2.47-3.68-5.19-7.52-4.08a6,6,0,0,0-4.08,3.24c-.78,1.8-.53,4.13.71,6.56,3.31,6.47,6.71,13,10,19.39q4,7.79,8.07,15.6c1.61,3.14,3.56,4.53,6.28,4.46s4.5-1.49,6.06-4.79c3.11-6.58,6.33-13.23,9.44-19.66l.17-.35a14.15,14.15,0,0,1,1-1.7l.64-1,.92-1.5,4.5,8.71c2.9,5.59,5.71,11,8.55,16.47,1.37,2.65,3.33,3.91,5.94,3.82s4.31-1.34,5.57-3.88c.76-1.52,1.5-3.06,2.23-4.6l1-2.16q2.07-4.31,4.15-8.62c3.23-6.68,6.57-13.59,9.78-20.42a7.57,7.57,0,0,0,.39-6.52A6,6,0,0,0,174.19,143.34Z"/><path class="cls-1" d="M283.14,213.44h-.09A62.28,62.28,0,0,0,221,275.33,62.34,62.34,0,0,0,283,337.71h.1a62.26,62.26,0,0,0,62.09-61.89,62.34,62.34,0,0,0-62.06-62.38Zm35.1,97.27a49.38,49.38,0,0,1-35.17,14.65h0a49.79,49.79,0,0,1-.16-99.57h.18a49.72,49.72,0,0,1,35.16,84.92Z"/><path class="cls-1" d="M285.3,244.46a11.45,11.45,0,0,0-1.29-.08,7.77,7.77,0,0,0-4.95,1.55A5.79,5.79,0,0,0,277,250c-.34,3.67,2.36,6.23,7,6.68,7.84.74,13.34,4.63,16.35,11.54a23,23,0,0,1,1.4,5.89c.08.55.16,1.1.25,1.64.62,3.67,3.27,6.09,6.42,5.94,3.42-.19,5.88-3,5.86-6.78A29.78,29.78,0,0,0,306,254.42,33.31,33.31,0,0,0,285.3,244.46Z"/></svg>